<?xml version="1.0" encoding="utf-8"?>
<!-- Generator: Adobe Illustrator 23.0.1, SVG Export Plug-In . SVG Version: 6.00 Build 0)  -->
<svg version="1.1" id="Layer_1" xmlns="http://www.w3.org/2000/svg" xmlns:xlink="http://www.w3.org/1999/xlink" x="0px" y="0px"
	 viewBox="0 0 1000 1000" style="enable-background:new 0 0 1000 1000;" xml:space="preserve">
<style type="text/css">
	.st0{fill:none;}
	.st1{fill:url(#SVGID_1_);stroke:url(#SVGID_2_);stroke-width:30;stroke-miterlimit:10;}
</style>
<path class="st0" d="M0,0h1000v1000H0V0z"/>
<linearGradient id="SVGID_1_" gradientUnits="userSpaceOnUse" x1="134.9397" y1="500" x2="865.0603" y2="500">
	<stop  offset="0" style="stop-color:#ED1C24"/>
	<stop  offset="1" style="stop-color:#C1272D"/>
</linearGradient>
<linearGradient id="SVGID_2_" gradientUnits="userSpaceOnUse" x1="119.9397" y1="500" x2="880.0603" y2="500">
	<stop  offset="0" style="stop-color:#00FFFF"/>
	<stop  offset="1" style="stop-color:#29D8D8"/>
</linearGradient>
<path class="st1" d="M743.37,667.12c-30.83,0-58.41,12.17-79.5,31.23L374.66,530.02c2.03-9.33,3.65-18.66,3.65-28.39
	s-1.62-19.06-3.65-28.39l285.96-166.71c21.9,20.28,50.7,32.86,82.75,32.86c67.33,0,121.69-54.35,121.69-121.69S810.71,96,743.37,96
	s-121.69,54.35-121.69,121.69c0,9.73,1.62,19.06,3.65,28.39L339.37,412.79c-21.9-20.28-50.7-32.86-82.75-32.86
	c-67.33,0-121.69,54.35-121.69,121.69s54.35,121.69,121.69,121.69c32.04,0,60.84-12.57,82.75-32.86l288.8,168.74
	c-2.03,8.52-3.24,17.44-3.24,26.37c0,65.31,53.14,118.44,118.44,118.44s118.44-53.14,118.44-118.44S808.68,667.12,743.37,667.12z"/>
</svg>
